<svg fill="none" height="315" viewBox="0 0 305 315" width="305" xmlns="http://www.w3.org/2000/svg">
<g id="CHECK SIM">
<path d="M153.508 9.0456L152.5 8.07031L151.492 9.0456L115.559 43.8073L66.0561 36.8054L64.6672 36.609L64.4249 37.9905L55.7869 87.2343L11.6226 110.667L10.3835 111.324L10.9995 112.585L32.9559 157.501L10.9995 202.417L10.3835 203.677L11.6226 204.335L55.7869 227.767L64.4249 277.011L64.6672 278.393L66.0561 278.196L115.559 271.194L151.492 305.956L152.5 306.931L153.508 305.956L189.441 271.194L238.944 278.196L240.333 278.393L240.576 277.011L249.214 227.767L293.378 204.335L294.617 203.677L294.001 202.417L272.045 157.501L294.001 112.585L294.617 111.324L293.378 110.667L249.214 87.2343L240.576 37.9905L240.333 36.609L238.944 36.8054L189.441 43.8073L153.508 9.0456Z" fill="url(#paint0_linear_3301_41)" id="VECTOR">
</path>
<path clip-rule="evenodd" d="M211.846 101.33L232.351 121.836L130.267 223.919L74.0987 167.751L94.6043 147.246L130.267 182.908L211.846 101.33Z" fill="white" fill-rule="evenodd" id="CHECK">
</path>
</g>
<defs>
<linearGradient gradientUnits="userSpaceOnUse" id="paint0_linear_3301_41" x1="64.0001" x2="242" y1="38.5006" y2="278.501">
<stop stop-color="#19DB23">
</stop>
<stop offset="1" stop-color="#04CA0F">
</stop>
</linearGradient>
</defs>
</svg>